<?xml version="1.0" encoding="UTF-8"?>
<svg version="1.1" xmlns="http://www.w3.org/2000/svg" width="1024" height="1024">
<path d="M0 0 C5.56453275 2.99797428 10.46188346 6.48765962 15.4375 10.375 C16.87341386 11.48734594 18.30961073 12.59932666 19.74609375 13.7109375 C20.44331543 14.25202148 21.14053711 14.79310547 21.85888672 15.35058594 C25.21348168 17.93480983 28.60439017 20.47002752 32 23 C30.89064989 26.32805032 30.37971186 26.71095144 27.60546875 28.6015625 C26.90236572 29.08786133 26.1992627 29.57416016 25.47485352 30.07519531 C24.34261353 30.84234863 24.34261353 30.84234863 23.1875 31.625 C21.63690704 32.69369828 20.08743503 33.7640247 18.5390625 34.8359375 C17.77110352 35.36670898 17.00314453 35.89748047 16.21191406 36.44433594 C12.12013394 39.32213097 8.17442293 42.38738028 4.22265625 45.453125 C2 47 2 47 0 47 C0 43.37 0 39.74 0 36 C-30.81065226 35.51983399 -62.53034608 36.14159035 -86.09765625 58.92358398 C-97.97464683 70.91909495 -104.2739507 85.38052838 -110.12280273 100.99731445 C-112.19709231 106.42767137 -114.73829181 111.18750763 -118 116 C-106.51345794 114.77390843 -98.51791123 113.0211954 -90 105 C-88.42362074 103.04348206 -86.90391783 101.04023351 -85.4375 99 C-70.53234278 79.00169556 -50.93871859 65.7267283 -26 62 C-13.75401689 60.7524719 -1.48420081 60.86925416 10.80859375 60.90234375 C12.87223781 60.90421332 14.93588231 60.90563467 16.99952698 60.90663147 C22.38010933 60.91041427 27.76066385 60.92020738 33.14123535 60.93133545 C38.65209578 60.94164165 44.16296079 60.94614865 49.67382812 60.95117188 C60.44923085 60.96183428 71.22461309 60.97885854 82 61 C82 57.37 82 53.74 82 50 C86.72131082 52.58872375 90.94333632 55.34703657 95.1875 58.6875 C96.30936696 59.56447906 97.43177679 60.44076404 98.5546875 61.31640625 C99.12026367 61.75871582 99.68583984 62.20102539 100.26855469 62.65673828 C103.0912335 64.84658301 105.9505744 66.98684905 108.8125 69.125 C109.80894531 69.87007813 110.80539062 70.61515625 111.83203125 71.3828125 C112.54746094 71.91648437 113.26289062 72.45015625 114 73 C109.6458253 77.70215177 104.68410334 81.31930747 99.5 85.0625 C97.8222479 86.28163227 96.14514564 87.50165942 94.46875 88.72265625 C93.68757813 89.28871582 92.90640625 89.85477539 92.1015625 90.43798828 C90.38763934 91.71188238 88.7310312 93.06259081 87.09375 94.43359375 C85 96 85 96 82 96 C82 92.37 82 88.74 82 85 C68.56859655 85.03819081 55.13746895 85.0977465 41.70628262 85.18390274 C35.46832224 85.22326015 29.23050056 85.25550607 22.99243164 85.27099609 C16.96219342 85.28624009 10.9323368 85.3208223 4.90226936 85.36830902 C2.61205441 85.38304329 0.32178495 85.3910364 -1.96847725 85.39188385 C-22.96492221 85.40745378 -40.21031358 87.47423809 -56.3203125 102.265625 C-60.35177291 106.37936011 -64.1468857 110.71876188 -68 115 C30.505 115.495 30.505 115.495 131 116 C131 112.37 131 108.74 131 105 C135.4027439 106.76109756 138.44579799 108.66760148 142.0625 111.5625 C143.20495846 112.463218 144.34820714 113.36293446 145.4921875 114.26171875 C146.0706543 114.71724121 146.64912109 115.17276367 147.24511719 115.64208984 C148.95711508 116.96681609 150.69232189 118.24969174 152.4453125 119.51953125 C152.99050537 119.91648193 153.53569824 120.31343262 154.09741211 120.72241211 C155.60726168 121.81683861 157.12186263 122.90470139 158.63671875 123.9921875 C160.96965031 125.9742153 161.76406632 127.28172479 163 130 C159.71092399 132.52422739 156.41825933 135.0437336 153.125 137.5625 C152.2071875 138.26697266 151.289375 138.97144531 150.34375 139.69726562 C144.33343383 144.2896551 138.23371017 148.71570096 132 153 C131 151 131 151 131 141 C66.98 141 2.96 141 -63 141 C-60.69 143.64 -58.38 146.28 -56 149 C-54.69548014 150.67758366 -53.40142238 152.36343999 -52.125 154.0625 C-43.89273518 164.38852004 -33.86975108 169.75837615 -21 172 C-17.78063623 172.27346143 -14.5792211 172.31060646 -11.34936523 172.31884766 C-10.43121536 172.32889328 -9.51306549 172.3389389 -8.5670929 172.34928894 C-5.5642656 172.3799185 -2.56152662 172.39709939 0.44140625 172.4140625 C2.53605397 172.43279044 4.63069427 172.45236505 6.72532654 172.4727478 C12.21444308 172.52390314 17.70358404 172.56361742 23.19281006 172.60089111 C28.80373085 172.64103518 34.41455153 172.69207991 40.02539062 172.7421875 C51.01685659 172.83875011 62.0083793 172.92321743 73 173 C73 169.37 73 165.74 73 162 C77.41591044 163.76636417 79.46743907 165.00580259 82.9375 168 C87.89061968 172.17708594 93.02485961 175.93750186 98.40405273 179.54882812 C101.62593871 181.77062975 103.42825498 183.43984088 105 187 C100.31988563 190.45348617 95.63812818 193.90471058 90.953125 197.3515625 C88.08266672 199.46360174 85.21628411 201.58061254 82.359375 203.7109375 C81.39515625 204.42507813 80.4309375 205.13921875 79.4375 205.875 C78.61121094 206.49117187 77.78492188 207.10734375 76.93359375 207.7421875 C75 209 75 209 73 209 C73 205.04 73 201.08 73 197 C71.87263931 197.00888245 70.74527863 197.01776489 69.58375549 197.0269165 C58.89047095 197.10847088 48.1972506 197.16818831 37.5037241 197.20724869 C32.00780198 197.22800599 26.51213358 197.25610363 21.01635742 197.30175781 C15.69949332 197.34564267 10.3828712 197.36922592 5.06583977 197.37950897 C3.05073176 197.38682461 1.03563501 197.40110695 -0.97936821 197.42292023 C-21.42367614 197.63516936 -41.29522463 194.87040522 -58 182 C-59.14855469 181.11634766 -59.14855469 181.11634766 -60.3203125 180.21484375 C-67.351545 174.34794718 -72.60842393 167.30637565 -78.01953125 159.98828125 C-83.37223347 152.65403315 -83.37223347 152.65403315 -90.25 146.8125 C-90.93578125 146.34457031 -91.6215625 145.87664062 -92.328125 145.39453125 C-99.09983062 141.86017612 -105.41743914 140.55647877 -113.00463867 140.70703125 C-113.85462936 140.71141205 -114.70462006 140.71579285 -115.58036804 140.7203064 C-117.40877286 140.73164204 -119.23714571 140.7499033 -121.06542015 140.77450562 C-123.96208167 140.81308756 -126.85832711 140.83241447 -129.75520325 140.84692383 C-135.89949016 140.88105461 -142.04343075 140.93881485 -148.1875 141 C-155.32136428 141.07090902 -162.45503243 141.13201478 -169.58916664 141.16781616 C-172.43774009 141.18720911 -175.28570509 141.22471934 -178.13407898 141.26293945 C-179.88389564 141.2738392 -181.63371784 141.28389413 -183.38354492 141.29296875 C-184.17069885 141.30846771 -184.95785278 141.32396667 -185.76885986 141.3399353 C-190.59157189 141.34132168 -193.79198295 140.60672166 -198 138 C-201.01872504 134.98127496 -201.83354705 132.24455029 -202 128 C-200.66136101 124.05101499 -199.40886922 120.55665192 -196 118 C-192.461467 116.820489 -189.57372343 116.8393862 -185.83984375 116.7890625 C-184.39126534 116.76096291 -182.94269781 116.7322983 -181.49414062 116.703125 C-179.22567416 116.66214184 -176.95740376 116.62523337 -174.6887207 116.59863281 C-162.50276354 116.44358499 -151.13934207 116.05851795 -142 107 C-137.40705097 101.14299727 -134.39111491 94.80092262 -131.625 87.9375 C-119.28613127 58.40602259 -102.56482764 34.3573526 -72.29296875 21.3046875 C-48.18481599 11.75294014 -25.57613676 11.59668877 0 12 C0 8.04 0 4.08 0 0 Z " fill="#3B82F6" transform="translate(500,331)"/>
</svg>
